Patient4_TMGait_0pt6_02_left_17_GRF.mot
version=1
nRows=32
nColumns=19
inDegrees=no
endheader
time	F1x	F1y	F1z	M1x	M1y	M1z	F2x	F2y	F2z	M2x	M2y	M2z	EC1x	EC1y	EC1z	EC2x	EC2y	EC2z
20.89	-1.5148	2.2535	7.511	-2.9723	-6.3724	5.3388	-37.3502	731.3123	-54.835	287.0937	76.6591	815.4151	-0.0592	0.0182	-0.0073	-0.0462	0.0165	0.9585
20.902	-1.0079	2.1952	5.195	-2.3241	-4.4541	4.3131	-37.8582	741.9572	-54.1676	290.6343	75.4805	821.9344	-0.0592	0.0182	-0.0073	-0.0462	0.0165	0.9585
20.914	-0.59901	2.1641	3.1965	-1.7599	-2.7955	3.466	-38.2608	754.4211	-53.4768	294.8456	74.2462	830.1582	-0.0592	0.0182	-0.0073	-0.0462	0.0165	0.9585
20.926	-0.30401	2.1694	1.6488	-1.326	-1.5099	2.8432	-38.4721	767.8793	-52.863	299.4377	73.0529	839.3754	-0.0592	0.0182	-0.0073	-0.0462	0.0165	0.9585
20.938	-0.12239	2.2063	0.56999	-1.0274	-0.61659	2.4417	-38.4225	781.2692	-52.3755	304.0141	71.9359	848.5335	-0.0592	0.0182	-0.0073	-0.0462	0.0165	0.9585
20.95	-0.038294	2.2519	-0.1046	-0.84317	-0.061583	2.2092	-38.0295	793.4636	-52.0135	308.1459	70.8658	856.4543	-0.0592	0.0182	-0.0073	-0.0462	0.0165	0.9585
20.962	-0.023239	2.2852	-0.45994	-0.74011	0.2243	2.0825	-37.216	803.4101	-51.7301	311.4332	69.7611	862.0172	-0.0592	0.0182	-0.0073	-0.0462	0.0165	0.9585
20.974	-0.058336	2.2661	-0.59614	-0.6775	0.32289	1.9845	-35.9176	810.2227	-51.4313	313.5431	68.494	864.2582	-0.0592	0.0182	-0.0073	-0.0462	0.0165	0.9585
20.986	-0.13356	2.1447	-0.58393	-0.6122	0.28447	1.8329	-34.1111	813.2524	-51.0403	314.2353	66.9654	862.4779	-0.0592	0.0182	-0.0073	-0.0462	0.0165	0.9585
20.998	-0.24643	1.8586	-0.49512	-0.5038	0.16512	1.5352	-31.8142	812.1075	-50.4695	313.3682	65.0831	856.2722	-0.0592	0.0182	-0.0073	-0.0462	0.0165	0.9585
21.01	-0.39496	1.321	-0.36402	-0.30945	-0.0082884	0.9755	-29.0645	806.6898	-49.7021	310.9057	62.8369	845.5644	-0.0592	0.0182	-0.0073	-0.0462	0.0165	0.9585
21.022	-0.57474	0.44628	-0.22478	0.0079013	-0.20365	0.043993	-25.9318	797.2095	-48.7144	306.9306	60.2227	830.6088	-0.0592	0.0182	-0.0073	-0.0462	0.0165	0.9585
21.034	-0.76132	-0.83327	-0.087768	0.47386	-0.40138	-1.3355	-22.4766	784.26	-47.5663	301.6695	57.3173	812.0633	-0.0592	0.0182	-0.0073	-0.0462	0.0165	0.9585
21.046	-0.91528	-2.5264	0.02953	1.0903	-0.56578	-3.1737	-18.7397	768.8575	-46.3045	295.5106	54.1817	791.0087	-0.0592	0.0182	-0.0073	-0.0462	0.0165	0.9585
21.058	-0.96371	-4.5223	0.10396	1.8185	-0.64399	-5.3565	-14.7483	752.3622	-45.0444	288.9731	50.9404	768.8607	-0.0592	0.0182	-0.0073	-0.0462	0.0165	0.9585
21.07	-0.80072	-6.5444	0.1008	2.5557	-0.56024	-7.5782	-10.5277	736.3309	-43.8831	282.6484	47.7008	747.218	-0.0592	0.0182	-0.0073	-0.0462	0.0165	0.9585
21.082	-0.29628	-8.0754	-0.033408	3.1073	-0.20783	-9.2625	-6.1212	722.2103	-42.9538	277.0886	44.6105	727.5448	-0.0592	0.0182	-0.0073	-0.0462	0.0165	0.9585
21.094	0.69989	-8.2798	-0.36107	3.1622	0.54222	-9.4632	-1.5794	711.12	-42.3449	272.7202	41.7773	710.962	-0.0592	0.0182	-0.0073	-0.0462	0.0165	0.9585
21.106	2.3466	-5.9624	-0.96538	2.2754	1.8411	-6.8243	3.0652	703.661	-42.1243	269.7695	39.2824	698.0566	-0.0592	0.0182	-0.0073	-0.0462	0.0165	0.9585
21.118	4.7547	0.45438	-1.9166	-0.13499	3.8089	0.4497	7.783	699.802	-42.3016	268.22	37.152	688.8005	-0.0592	0.0182	-0.0073	-0.0462	0.0165	0.9585
21.13	7.9543	12.8004	-3.2819	-4.7478	6.5231	14.4371	12.5482	698.854	-42.8166	267.8039	35.3446	682.5333	-0.0592	0.0182	-0.0073	-0.0462	0.0165	0.9585
21.142	11.7847	32.9358	-5.0573	-12.2496	9.9095	37.2528	17.3016	699.5617	-43.5477	268.0352	33.7706	678.0721	-0.0592	0.0182	-0.0073	-0.0462	0.0165	0.9585
21.154	15.791	62.2757	-7.141	-23.1632	13.6712	70.4795	21.9591	700.2211	-44.2898	268.2596	32.2747	673.8149	-0.0592	0.0182	-0.0073	-0.0462	0.0165	0.9585
21.166	19.0661	101.0214	-9.2475	-37.5596	17.1357	114.3499	26.3831	698.8982	-44.8066	267.7376	30.6937	667.9774	-0.0592	0.0182	-0.0073	-0.0462	0.0165	0.9585
21.178	20.1646	147.1116	-10.8414	-54.6686	19.1515	166.5211	30.4287	693.6901	-44.8108	265.7439	28.8298	658.8291	-0.0592	0.0182	-0.0073	-0.0462	0.0165	0.9585
21.19	17.6018	195.4532	-11.0733	-72.5785	18.2254	221.2454	33.9069	683.0073	-44.0524	261.6751	26.5364	644.9574	-0.0592	0.0182	-0.0073	-0.0462	0.0165	0.9585
21.202	11.9711	239.2067	-8.8131	-88.708	13.3623	270.7793	36.6705	665.9368	-42.369	255.1872	23.7413	625.5715	-0.0592	0.0182	-0.0073	-0.0462	0.0165	0.9585
21.214	5.4822	274.0107	-4.1102	-101.4469	5.5418	309.9824	38.6559	642.5088	-39.7842	246.2903	20.5118	600.7383	-0.0592	0.0182	-0.0073	-0.0462	0.0165	0.9585
21.226	-0.18487	300.1233	1.6208	-110.9205	-3.0758	338.8813	39.9159	613.6046	-36.5085	235.3079	17.021	571.2995	-0.0592	0.0182	-0.0073	-0.0462	0.0165	0.9585
21.238	-4.0666	319.7769	7.9086	-117.9878	-11.5303	359.9152	40.6459	580.3828	-32.878	222.6764	13.4889	538.3157	-0.0592	0.0182	-0.0073	-0.0462	0.0165	0.9585
21.25	-5.9034	335.7476	13.5766	-123.7409	-18.4797	376.1991	41.0029	544.0279	-29.1051	208.8452	10.0264	502.8668	-0.0592	0.0182	-0.0073	-0.0462	0.0165	0.9585
21.262	-6.0892	350.3877	18.4343	-129.0757	-23.808	390.5264	41.1168	505.5539	-25.2924	194.2111	6.6639	465.8517	-0.0592	0.0182	-0.0073	-0.0462	0.0165	0.9585
